<svg width="25" height="24" viewBox="0 0 25 24" fill="none" xmlns="http://www.w3.org/2000/svg">
<mask id="mask0_5_1408" style="mask-type:luminance" maskUnits="userSpaceOnUse" x="2" y="2" width="22" height="21">
<path fill-rule="evenodd" clip-rule="evenodd" d="M2.66669 2.99988H23.1392V22.5009H2.66669V2.99988Z" fill="white"/>
</mask>
<g mask="url(#mask0_5_1408)">
<path fill-rule="evenodd" clip-rule="evenodd" d="M4.4904 12.123C5.8924 16.485 11.4314 20.012 12.9034 20.885C14.3804 20.003 19.9594 16.437 21.3164 12.127C22.2074 9.341 21.3804 5.812 18.0944 4.753C16.5024 4.242 14.6454 4.553 13.3634 5.545C13.0954 5.751 12.7234 5.755 12.4534 5.551C11.0954 4.53 9.3214 4.231 7.7044 4.753C4.4234 5.811 3.5994 9.34 4.4904 12.123ZM12.9044 22.501C12.7804 22.501 12.6574 22.471 12.5454 22.41C12.2324 22.239 4.8594 18.175 3.0624 12.581C3.0614 12.581 3.0614 12.58 3.0614 12.58C1.9334 9.058 3.1894 4.632 7.2444 3.325C9.1484 2.709 11.2234 2.98 12.9014 4.039C14.5274 3.011 16.6874 2.727 18.5534 3.325C22.6124 4.634 23.8724 9.059 22.7454 12.58C21.0064 18.11 13.5794 22.235 13.2644 22.408C13.1524 22.47 13.0284 22.501 12.9044 22.501Z" fill="#222222"/>
</g>
<path fill-rule="evenodd" clip-rule="evenodd" d="M18.8204 10.6249C18.4334 10.6249 18.1054 10.3279 18.0734 9.9359C18.0074 9.1139 17.4574 8.4199 16.6744 8.1669C16.2794 8.0389 16.0634 7.6159 16.1904 7.2229C16.3194 6.8289 16.7384 6.6149 17.1344 6.7389C18.4974 7.1799 19.4524 8.3869 19.5694 9.8139C19.6024 10.2269 19.2954 10.5889 18.8824 10.6219C18.8614 10.6239 18.8414 10.6249 18.8204 10.6249Z" fill="#222222"/>
</svg>
