<svg width="17" height="20" viewBox="0 0 17 20" fill="none" xmlns="http://www.w3.org/2000/svg">
<path fill-rule="evenodd" clip-rule="evenodd" d="M8.58386 6.5C7.61886 6.5 6.83386 7.285 6.83386 8.251C6.83386 9.216 7.61886 10 8.58386 10C9.54886 10 10.3339 9.216 10.3339 8.251C10.3339 7.285 9.54886 6.5 8.58386 6.5ZM8.58386 11.5C6.79186 11.5 5.33386 10.043 5.33386 8.251C5.33386 6.458 6.79186 5 8.58386 5C10.3759 5 11.8339 6.458 11.8339 8.251C11.8339 10.043 10.3759 11.5 8.58386 11.5Z" fill="#222222"/>
<mask id="mask0_260_335" style="mask-type:luminance" maskUnits="userSpaceOnUse" x="0" y="0" width="17" height="20">
<path fill-rule="evenodd" clip-rule="evenodd" d="M0.333374 0H16.8329V19.5H0.333374V0Z" fill="white"/>
</mask>
<g mask="url(#mask0_260_335)">
<path fill-rule="evenodd" clip-rule="evenodd" d="M8.58289 1.5C4.86089 1.5 1.83289 4.557 1.83289 8.313C1.83289 13.092 7.45689 17.748 8.58289 17.996C9.70889 17.747 15.3329 13.091 15.3329 8.313C15.3329 4.557 12.3049 1.5 8.58289 1.5ZM8.58289 19.5C6.78889 19.5 0.332886 13.948 0.332886 8.313C0.332886 3.729 4.03389 0 8.58289 0C13.1319 0 16.8329 3.729 16.8329 8.313C16.8329 13.948 10.3769 19.5 8.58289 19.5Z" fill="#222222"/>
</g>
</svg>
